# xmcd
#
# Track frame offsets: 
#        150
#        16519
#        35851
#        53000
#        72619
#        93389
#        110312
#        125220
#        135485
#        153672
#        171047
#        191830
#
# Disc length: 2763 seconds
#
# Revision: 2
# Processed by: cddbd v1.5.2PL0 Copyright (c) Steve Scherf et al.
# Submitted via: ExactAudioCopyFreeDBPlugin 1.0
#
DISCID=a70ac90c
DTITLE=Béla Fleck and Abigail Washburn - Béla Fleck and Abigail Washburn
DYEAR=2014
DGENRE=Bluegrass
TTITLE0=Railroad
TTITLE1=Ride to You
TTITLE2=What'cha Gonna Do
TTITLE3=Little Birdie
TTITLE4=New South Africa
TTITLE5=Pretty Polly
TTITLE6=Shotgun Blues
TTITLE7=For Children - No 3 Quasi adagio, No 10 Allegro molto - Childr
TTITLE7=en's Dance
TTITLE8=And I am Born to Die
TTITLE9=Banjo Banjo
TTITLE10=What Are They Doing in Heaven Today?
TTITLE11=Bye Bye Baby Blues
EXTD=
EXTT0=
EXTT1=
EXTT2=
EXTT3=
EXTT4=
EXTT5=
EXTT6=
EXTT7=
EXTT8=
EXTT9=
EXTT10=
EXTT11=
PLAYORDER=
